<svg width="296" height="144" viewBox="0 0 296 144" fill="none" xmlns="http://www.w3.org/2000/svg">
<g clip-path="url(#clip0_21_8410)">
<rect width="296" height="144" rx="16" fill="#FF5D47"/>
<path d="M148 335C293.251 335 411 217.251 411 72C411 -73.2509 293.251 -191 148 -191C2.74911 -191 -115 -73.2509 -115 72C-115 217.251 2.74911 335 148 335Z" fill="url(#paint0_radial_21_8410)"/>
<g clip-path="url(#clip1_21_8410)">
<path opacity="0.5" d="M-93.51 87.2681C-100.809 68.4927 -79.9046 45.8977 -60.9783 45.8977C-54.9476 45.8977 -49.2679 47.3397 -44.2936 49.8836C-36.6217 36.3875 -21.6976 27.2305 -4.54401 27.2305C13.0173 27.2305 28.2419 36.828 35.7403 50.8534C42.0197 47.6885 49.1695 45.8977 56.7553 45.8977C80.4714 45.8977 99.9255 63.4013 101.845 85.6758C102.016 87.6703 100.377 89.299 98.3754 89.299H-90.3778C-91.7418 89.299 -93.0158 88.5395 -93.51 87.2681Z" fill="#FF5D47"/>
<path d="M475.951 90.2388C489.013 65.3017 454.86 34.7578 423.974 34.7578C414.253 34.7578 405.098 36.6595 397.08 40.0146C384.714 22.2153 360.658 10.1387 333.009 10.1387C304.702 10.1387 280.162 22.7962 268.076 41.2936C257.954 37.1196 246.43 34.7578 234.202 34.7578C195.476 34.7578 163.799 58.4495 161.417 88.3736C161.259 90.3691 162.897 91.9971 164.898 91.9971H472.931C474.184 91.9971 475.37 91.3487 475.951 90.2388Z" fill="#FF5D47" fill-opacity="0.6"/>
</g>
<path d="M199.425 74.9414C199.489 73.8899 199.521 72.8299 199.521 71.7623C199.521 43.1748 176.347 20 147.761 20C119.174 20 96 43.1748 96 71.7623C96 72.8299 96.0323 73.8899 96.096 74.9414H199.425Z" fill="#FFCC5C"/>
<path d="M127.586 66.8517L126.172 68.2659L127.586 69.6801L141.11 83.2043C141.871 83.966 142.854 84.3281 143.82 84.3281C144.787 84.3281 145.769 83.966 146.531 83.2043L174.728 55.0065L176.142 53.5923L174.728 52.1781L172.136 49.5858L170.721 48.1716L169.307 49.5858L143.82 75.0731L133.007 64.2594L131.592 62.8451L130.178 64.2594L127.586 66.8517Z" fill="white" stroke="white" stroke-width="4"/>
<rect y="75" width="296" height="69" fill="#FF5D47"/>
<path d="M102.154 74.9348C103.081 74.8189 105.498 74.5167 111.115 74.5167C115.884 74.5167 117.045 74.656 118.092 74.7818C118.614 74.8445 119.109 74.9038 120.007 74.9408H124.616C125.937 74.8884 126.725 74.7894 127.532 74.688C128.804 74.5283 130.125 74.3624 133.656 74.3624C136.901 74.3624 138.333 74.5025 139.832 74.6492C141 74.7634 142.209 74.8817 144.347 74.9408H148.586L148.633 74.9348C149.551 74.8189 151.943 74.5167 157.504 74.5167C162.224 74.5167 163.373 74.656 164.41 74.7818C164.927 74.8445 165.416 74.9038 166.306 74.9408H170.868C172.175 74.8884 172.955 74.7894 173.755 74.688C175.014 74.5283 176.322 74.3624 179.817 74.3624C183.029 74.3624 184.447 74.5025 185.931 74.6492C187.087 74.7634 188.283 74.8817 190.4 74.9408H199.521C199.398 76.967 199.159 78.9618 198.809 80.9185C194.208 80.9089 192.309 80.7023 190.497 80.5051C188.807 80.3213 187.194 80.1458 183.538 80.1458C179.56 80.1458 178.072 80.3536 176.638 80.5538C175.308 80.7397 174.024 80.9189 170.84 80.9189C167.856 80.9189 166.973 80.8009 166.002 80.6713C164.822 80.5137 163.514 80.339 158.142 80.339C151.813 80.339 149.09 80.7178 148.046 80.8631C147.798 80.8976 147.645 80.9189 147.56 80.9189C147.56 80.9189 147.055 80.9322 146.328 80.9551C145.628 80.9322 145.139 80.9189 145.139 80.9189C140.292 80.9189 138.344 80.707 136.489 80.5051C134.8 80.3213 133.186 80.1458 129.53 80.1458C125.552 80.1458 124.064 80.3536 122.63 80.5538C121.3 80.7397 120.016 80.9189 116.832 80.9189C113.849 80.9189 112.965 80.8009 111.995 80.6713C110.814 80.5137 109.506 80.339 104.134 80.339C100.728 80.339 98.3659 80.4488 96.7482 80.5728C96.4503 78.8375 96.2388 77.0727 96.1184 75.283C95.9535 75.2609 95.9691 75.2385 96.114 75.2163C96.1079 75.1245 96.1021 75.0327 96.0965 74.9408H102.107C102.122 74.9389 102.138 74.9369 102.154 74.9348Z" fill="#FF9451"/>
<path d="M147.809 123.521C153.965 123.521 159.87 122.448 165.347 120.48C163.652 120.414 162.888 120.312 162.17 120.216C161.2 120.087 160.316 119.969 157.333 119.969C154.148 119.969 152.865 120.148 151.534 120.334C150.101 120.534 148.613 120.742 144.635 120.742C140.979 120.742 139.365 120.566 137.676 120.383C135.821 120.181 133.873 119.969 129.026 119.969L128.884 119.958C134.746 122.258 141.13 123.521 147.809 123.521Z" fill="#FF9451"/>
<path d="M176.815 113.121C175.126 112.937 173.512 112.762 169.857 112.762C165.878 112.762 164.39 112.969 162.957 113.17C161.626 113.356 160.343 113.535 157.159 113.535C154.175 113.535 153.291 113.417 152.321 113.287C151.141 113.13 149.833 112.955 144.46 112.955C138.132 112.955 135.409 113.334 134.364 113.479C134.116 113.513 133.963 113.535 133.879 113.535C133.879 113.535 133.374 113.548 132.647 113.571C131.946 113.548 131.457 113.535 131.457 113.535C126.61 113.535 124.663 113.323 122.807 113.121C121.171 112.943 119.605 112.773 116.185 112.762C115.558 112.279 114.942 111.782 114.339 111.271C115.476 111.384 116.421 111.454 116.421 111.454C121.268 111.454 123.215 111.666 125.071 111.868C126.76 112.052 128.374 112.227 132.029 112.227C136.007 112.227 137.496 112.019 138.929 111.819C140.26 111.633 141.543 111.454 144.727 111.454C147.711 111.454 148.595 111.572 149.565 111.702C150.745 111.859 152.053 112.034 157.425 112.034C163.754 112.034 166.477 111.655 167.522 111.51L167.522 111.51C167.77 111.475 167.923 111.454 168.007 111.454C168.007 111.454 172.393 111.144 173.992 110.778H181.853C180.839 111.662 179.79 112.506 178.71 113.31C178.008 113.251 177.407 113.185 176.815 113.121Z" fill="#FF9451"/>
<path d="M184.979 104.789C186.026 104.789 186.906 104.804 187.668 104.828C188.168 104.227 188.655 103.614 189.129 102.99C188.427 102.936 187.96 102.873 187.512 102.813C186.542 102.684 185.658 102.566 182.674 102.566C179.49 102.566 178.207 102.745 176.876 102.931C175.443 103.131 173.954 103.339 169.976 103.339C166.32 103.339 164.707 103.163 163.018 102.98C161.162 102.778 159.215 102.566 154.368 102.566C154.368 102.566 153.879 102.552 153.178 102.53C152.451 102.552 151.946 102.566 151.946 102.566C151.862 102.566 151.708 102.587 151.461 102.622C150.416 102.767 147.693 103.146 141.365 103.146C135.992 103.146 134.684 102.971 133.504 102.813C132.534 102.684 131.65 102.566 128.666 102.566C125.482 102.566 124.199 102.745 122.868 102.931C121.435 103.131 119.946 103.339 115.968 103.339C112.313 103.339 110.699 103.163 109.01 102.98C108.199 102.891 107.371 102.801 106.292 102.728C106.871 103.502 107.471 104.259 108.092 104.998C111.411 105.044 112.466 105.185 113.435 105.315C114.405 105.444 115.289 105.562 118.273 105.562C121.457 105.562 122.74 105.383 124.071 105.197C125.504 104.997 126.993 104.789 130.971 104.789C134.627 104.789 136.24 104.965 137.929 105.149C139.785 105.35 141.732 105.562 146.579 105.562C146.579 105.562 147.068 105.576 147.769 105.599C148.496 105.576 149.001 105.562 149.001 105.562C149.085 105.562 149.239 105.541 149.486 105.507C150.531 105.361 153.254 104.982 159.582 104.982C164.955 104.982 166.263 105.157 167.443 105.315C168.413 105.444 169.297 105.562 172.281 105.562C175.465 105.562 176.748 105.383 178.079 105.197C179.512 104.997 181.001 104.789 184.979 104.789Z" fill="#FF9451"/>
<path d="M193.316 96.5218C193.092 96.4983 192.874 96.4746 192.657 96.451C190.968 96.2672 189.354 96.0917 185.699 96.0917C181.72 96.0917 180.232 96.2995 178.799 96.4997C177.468 96.6856 176.185 96.8648 173 96.8648C170.017 96.8648 169.133 96.7468 168.163 96.6172C166.983 96.4596 165.675 96.2849 160.302 96.2849C153.974 96.2849 151.251 96.6637 150.206 96.809C149.958 96.8434 149.805 96.8648 149.721 96.8648C149.721 96.8648 149.216 96.8781 148.488 96.901C147.788 96.8781 147.299 96.8648 147.299 96.8648C142.452 96.8648 140.505 96.6529 138.649 96.451C136.96 96.2672 135.346 96.0917 131.691 96.0917C127.713 96.0917 126.224 96.2995 124.791 96.4997C123.46 96.6856 122.177 96.8648 118.993 96.8648C116.009 96.8648 115.125 96.7468 114.155 96.6172C112.975 96.4596 111.667 96.2849 106.294 96.2849C104.718 96.2849 103.365 96.3084 102.207 96.346C101.64 95.2999 101.109 94.2322 100.615 93.1443C105.276 93.1516 107.187 93.3596 109.01 93.5579C110.699 93.7417 112.313 93.9173 115.968 93.9173C119.946 93.9173 121.435 93.7094 122.868 93.5092C124.199 93.3233 125.482 93.1441 128.666 93.1441C131.65 93.1441 132.534 93.2622 133.504 93.3917C134.684 93.5493 135.992 93.724 141.365 93.724C147.693 93.724 150.416 93.3452 151.461 93.1999C151.708 93.1655 151.862 93.1441 151.946 93.1441C151.946 93.1441 152.451 93.1308 153.178 93.1079C153.879 93.1308 154.368 93.1441 154.368 93.1441C159.215 93.1441 161.162 93.356 163.018 93.5579C164.707 93.7417 166.32 93.9173 169.976 93.9173C173.954 93.9173 175.443 93.7094 176.876 93.5092C178.207 93.3233 179.49 93.1441 182.674 93.1441C185.658 93.1441 186.542 93.2622 187.512 93.3917C188.644 93.5429 189.894 93.7098 194.736 93.7231C194.29 94.6721 193.816 95.6054 193.316 96.5218Z" fill="#FF9451"/>
<path d="M191.946 88.8913C191.946 88.8913 194.278 88.9364 196.673 89.0033C197.138 87.6884 197.551 86.349 197.91 84.9878C196.948 85.0114 195.866 85.0253 194.652 85.0253C189.28 85.0253 187.972 84.8506 186.792 84.693C185.821 84.5635 184.938 84.4455 181.954 84.4455C178.77 84.4455 177.486 84.6247 176.156 84.8105C174.722 85.0107 173.234 85.2186 169.256 85.2186C165.6 85.2186 163.987 85.043 162.297 84.8592C160.442 84.6573 158.495 84.4455 153.648 84.4454C153.648 84.4454 153.158 84.4321 152.458 84.4093C151.731 84.4321 151.226 84.4455 151.226 84.4455C151.141 84.4455 150.988 84.4668 150.74 84.5013C149.696 84.6465 146.973 85.0253 140.644 85.0253C135.272 85.0253 133.964 84.8506 132.784 84.693C131.813 84.5635 130.93 84.4455 127.946 84.4455C124.762 84.4455 123.479 84.6247 122.148 84.8105C120.714 85.0107 119.226 85.2186 115.248 85.2186C111.592 85.2186 109.979 85.043 108.29 84.8592C106.434 84.6573 104.487 84.4455 99.6396 84.4454C99.6396 84.4454 98.6943 84.4197 97.5507 84.3783C97.8854 85.7131 98.2719 87.0273 98.7081 88.3187C102.619 88.3533 103.756 88.5051 104.794 88.6437C105.764 88.7732 106.648 88.8913 109.632 88.8913C112.816 88.8913 114.099 88.7121 115.43 88.5262C116.863 88.326 118.351 88.1181 122.33 88.1181C125.985 88.1181 127.599 88.2937 129.288 88.4775C131.144 88.6794 133.091 88.8913 137.938 88.8913C137.938 88.8913 138.427 88.9046 139.127 88.9275C139.855 88.9046 140.359 88.8913 140.359 88.8913C140.444 88.8913 140.597 88.8699 140.845 88.8355C141.89 88.6902 144.612 88.3114 150.941 88.3114C156.313 88.3114 157.621 88.4861 158.802 88.6437C159.772 88.7732 160.656 88.8913 163.639 88.8913C166.824 88.8913 168.107 88.7121 169.438 88.5262C170.871 88.326 172.359 88.1181 176.338 88.1181C179.993 88.1181 181.607 88.2937 183.296 88.4775C185.151 88.6794 187.099 88.8913 191.946 88.8913Z" fill="#FF9451"/>
<path d="M175.215 37.3125L175.11 37.4202L175.215 37.5278L178.596 40.9815C178.718 41.106 178.874 41.1651 179.03 41.1651C179.186 41.1651 179.342 41.106 179.464 40.9815L186.513 33.7805L186.618 33.6729L186.513 33.5653L185.865 32.9032L185.755 32.7909L185.645 32.9032L179.03 39.6609L176.083 36.6505L175.973 36.5382L175.863 36.6505L175.215 37.3125Z" fill="white" stroke="white" stroke-width="0.3077"/>
<path d="M188.757 42.66L188.647 42.7694L188.757 42.8787L190.635 44.7384C190.717 44.819 190.821 44.8569 190.923 44.8569C191.026 44.8569 191.13 44.819 191.212 44.7384L195.127 40.8609L195.238 40.7516L195.127 40.6423L194.767 40.2858L194.659 40.1786L194.551 40.2858L190.923 43.8778L189.333 42.3036L189.225 42.1964L189.117 42.3036L188.757 42.66Z" fill="white" stroke="white" stroke-width="0.3077"/>
</g>
<defs>
<radialGradient id="paint0_radial_21_8410" cx="0" cy="0" r="1" gradientUnits="userSpaceOnUse" gradientTransform="translate(148.007 72.011) scale(262.993)">
<stop stop-color="#FFCC5C"/>
<stop offset="0.729167" stop-color="#FF5D47"/>
<stop offset="1" stop-color="#FFCC5C" stop-opacity="0"/>
</radialGradient>
<clipPath id="clip0_21_8410">
<rect width="296" height="144" rx="16" fill="white"/>
</clipPath>
<clipPath id="clip1_21_8410">
<rect width="296" height="81.8584" fill="white" transform="translate(0 10.1387)"/>
</clipPath>
</defs>
</svg>
